<?xml version="1.0" standalone="no"?>
<!DOCTYPE svg PUBLIC "-//W3C//DTD SVG 20010904//EN"
 "http://www.w3.org/TR/2001/REC-SVG-20010904/DTD/svg10.dtd">
<svg version="1.0" xmlns="http://www.w3.org/2000/svg"
 width="512.000000pt" height="512.000000pt" viewBox="0 0 512.000000 512.000000"
 preserveAspectRatio="xMidYMid meet">

<g transform="translate(0.000000,512.000000) scale(0.100000,-0.100000)"
fill="#000000" stroke="none">
<path d="M2152 5100 c-145 -38 -284 -139 -357 -260 l-35 -57 -89 -6 c-266 -17
-485 -201 -546 -458 -8 -35 -15 -86 -15 -112 0 -46 -1 -48 -22 -41 -44 14
-149 20 -216 13 -238 -25 -449 -207 -505 -434 -32 -127 -29 -221 9 -341 l17
-55 -24 -16 c-49 -34 -152 -140 -194 -198 -111 -156 -166 -326 -166 -515 -1
-65 6 -145 14 -185 43 -203 153 -382 320 -522 l49 -40 -22 -69 c-28 -89 -31
-232 -6 -319 80 -274 337 -461 606 -441 41 3 90 8 108 12 l32 7 0 -45 c0 -65
35 -190 72 -261 94 -177 308 -307 506 -307 l69 0 37 -59 c71 -115 184 -208
309 -251 86 -30 238 -38 331 -16 210 49 394 233 441 438 l12 53 274 0 274 0
43 -83 43 -83 -23 -47 c-31 -63 -33 -188 -4 -246 42 -83 128 -144 221 -153
160 -17 305 115 305 278 0 57 -36 143 -78 186 -59 61 -103 78 -199 78 l-81 0
-48 98 c-76 154 -41 141 -410 145 l-314 3 0 124 0 125 619 0 619 0 130 -162
c113 -141 128 -165 117 -178 -58 -64 -72 -199 -31 -285 47 -100 135 -154 249
-155 110 0 190 46 243 142 25 46 29 63 29 128 0 61 -5 84 -27 125 -51 97 -133
148 -239 149 l-65 1 -155 193 c-85 107 -162 198 -171 203 -9 5 -298 9 -667 9
l-651 0 0 170 0 170 778 0 777 0 110 66 c107 65 110 66 135 49 51 -33 95 -47
155 -47 256 -1 373 310 180 480 -176 155 -445 33 -451 -203 l-1 -70 -84 -52
-84 -51 -758 -1 -757 -1 2 213 3 212 207 3 208 2 14 -34 c56 -135 234 -199
370 -132 59 29 94 64 129 130 17 32 22 58 22 116 -1 117 -50 196 -159 252 -51
27 -162 30 -217 6 -50 -22 -116 -83 -140 -130 l-19 -38 -210 0 -210 0 0 210 0
210 550 0 550 0 19 -39 c62 -120 203 -178 332 -136 104 35 189 151 189 260 0
61 -30 135 -73 182 -79 86 -191 114 -300 77 -55 -18 -124 -82 -150 -136 l-18
-38 -550 0 -549 0 2 213 3 212 748 3 748 2 93 -55 93 -56 -4 -43 c-9 -74 21
-151 80 -211 92 -92 215 -110 327 -49 93 51 139 130 140 245 1 207 -225 336
-408 233 l-49 -28 -109 65 -109 64 -778 3 -777 2 2 168 3 167 660 5 660 5 157
195 156 195 74 6 c90 8 142 33 197 95 93 105 93 253 0 358 -52 59 -106 87
-181 93 -156 15 -285 -92 -296 -246 -5 -73 8 -127 39 -173 11 -14 19 -31 19
-36 0 -5 -56 -80 -125 -166 l-125 -156 -620 0 -620 0 0 125 0 125 311 0 c196
0 317 4 330 10 10 6 44 60 74 119 l54 109 73 -1 c120 -2 203 48 261 157 31 58
31 174 0 232 -56 105 -141 159 -252 157 -78 0 -125 -19 -183 -71 -88 -79 -115
-216 -63 -318 l26 -49 -43 -87 -42 -88 -273 0 -273 0 0 80 c0 107 -14 169 -62
269 -118 248 -408 381 -676 311z m253 -165 c123 -32 221 -115 279 -235 l31
-65 3 -864 2 -863 -117 4 c-97 3 -126 8 -159 26 -85 44 -130 111 -144 210 -8
65 -42 102 -91 102 -48 0 -79 -39 -79 -99 0 -142 97 -294 230 -361 74 -37 141
-50 260 -50 l100 0 0 -380 0 -380 -117 0 c-101 0 -123 3 -151 20 -43 26 -71
90 -72 158 0 62 -38 184 -76 243 -66 106 -179 194 -288 228 -84 26 -206 36
-252 21 -43 -14 -70 -64 -55 -102 17 -43 42 -55 133 -62 114 -8 185 -35 251
-96 73 -66 105 -137 118 -253 16 -148 67 -235 171 -293 51 -28 60 -29 196 -32
l143 -4 -3 -607 -3 -607 -37 -75 c-46 -93 -112 -158 -206 -202 -62 -30 -74
-32 -172 -32 -86 1 -116 5 -162 24 -57 22 -149 96 -188 151 l-20 28 67 38 c81
47 158 121 207 196 81 128 118 330 69 380 -33 33 -89 30 -119 -6 -13 -15 -24
-40 -24 -56 0 -52 -22 -134 -52 -194 -39 -77 -112 -147 -196 -188 -63 -31 -73
-33 -177 -33 -103 0 -114 2 -175 31 -119 57 -193 142 -230 262 -24 78 -25 152
-3 243 16 68 16 70 -4 97 -36 49 -63 50 -145 9 -97 -48 -185 -64 -274 -49
-282 47 -440 352 -313 606 47 95 41 121 -39 173 -169 107 -282 262 -327 448
-24 97 -22 248 4 348 44 167 157 327 302 422 101 68 107 85 59 186 -173 374
208 748 575 564 80 -40 112 -43 143 -15 31 29 35 57 17 125 -51 198 40 401
220 489 244 119 531 -14 600 -279 8 -33 15 -75 15 -95 1 -39 14 -61 47 -78 35
-19 63 -14 94 17 34 34 37 68 14 176 -25 117 -76 208 -169 300 -50 50 -101 89
-133 104 -60 28 -60 32 10 108 102 111 262 156 412 118z m1380 -59 c35 -15 65
-59 65 -96 0 -37 -30 -81 -67 -96 -97 -41 -187 77 -122 160 36 45 70 54 124
32z m877 -275 c28 -25 33 -36 33 -76 0 -40 -5 -51 -33 -76 -37 -33 -77 -37
-122 -14 -37 19 -50 43 -50 90 0 46 13 71 48 89 44 24 88 20 124 -13z m259
-1360 c23 -24 29 -38 29 -73 -1 -96 -101 -142 -172 -79 -28 25 -33 36 -33 76
0 40 5 51 33 76 45 41 102 41 143 0z m-599 -340 c28 -25 33 -36 33 -76 0 -40
-5 -51 -33 -76 -71 -63 -171 -17 -172 79 0 93 101 136 172 73z m-702 -576 c33
-17 60 -61 60 -97 0 -39 -36 -86 -72 -96 -101 -27 -180 82 -117 162 36 46 80
56 129 31z m1303 -365 c20 -23 27 -41 27 -71 0 -105 -148 -141 -196 -47 -18
35 -18 62 1 98 34 66 117 76 168 20z m-283 -1335 c50 -26 73 -91 49 -138 -19
-38 -51 -57 -97 -57 -87 0 -134 96 -81 164 36 46 80 56 129 31z m-847 -256
c59 -27 73 -116 26 -165 -47 -50 -141 -37 -168 22 -44 98 45 187 142 143z"/>
<path d="M1922 3835 c-32 -14 -39 -27 -53 -98 -5 -27 -19 -62 -30 -79 -25 -35
-90 -67 -135 -68 -70 0 -110 -88 -64 -138 41 -44 120 -41 219 9 103 52 169
150 179 265 4 57 2 68 -17 88 -28 30 -61 37 -99 21z"/>
<path d="M904 3496 c-36 -16 -58 -64 -45 -99 15 -39 43 -54 115 -61 140 -14
216 -90 216 -216 0 -114 -97 -210 -213 -210 -55 0 -93 -67 -71 -125 12 -30 63
-48 116 -41 134 18 250 102 304 218 26 56 29 74 29 163 0 83 -4 109 -23 149
-46 101 -131 178 -231 210 -72 23 -161 28 -197 12z"/>
<path d="M1344 2325 c-101 -22 -172 -61 -250 -139 -102 -102 -154 -222 -154
-357 0 -42 5 -55 29 -80 36 -35 70 -37 107 -5 24 20 29 33 35 99 9 94 34 152
94 216 56 60 115 89 215 107 82 14 110 35 110 84 0 42 -9 59 -41 75 -34 18
-64 18 -145 0z"/>
<path d="M1651 1824 c-27 -22 -31 -33 -31 -73 0 -112 51 -228 135 -312 66 -65
113 -94 194 -119 91 -29 165 -27 196 5 32 31 32 75 3 110 -18 21 -37 28 -91
35 -81 12 -129 35 -179 86 -50 49 -79 111 -88 186 -5 49 -12 66 -34 85 -35 30
-67 29 -105 -3z"/>
</g>
</svg>
